<svg width="33" height="35" viewBox="0 0 33 35" fill="none" xmlns="http://www.w3.org/2000/svg">
<g clip-path="url(#clip0_7_110)">
<path fill-rule="evenodd" clip-rule="evenodd" d="M12.5655 7.65625C12.5655 7.36617 12.6718 7.08797 12.8611 6.88285C13.0504 6.67773 13.3071 6.5625 13.5747 6.5625H29.7229C29.9906 6.5625 30.2473 6.67773 30.4366 6.88285C30.6258 7.08797 30.7322 7.36617 30.7322 7.65625V27.3438C30.7322 27.6338 30.6258 27.912 30.4366 28.1171C30.2473 28.3223 29.9906 28.4375 29.7229 28.4375H13.5747C13.3071 28.4375 13.0504 28.3223 12.8611 28.1171C12.6718 27.912 12.5655 27.6338 12.5655 27.3438V22.9688C12.5655 22.6787 12.4592 22.4005 12.2699 22.1954C12.0806 21.9902 11.8239 21.875 11.5562 21.875C11.2886 21.875 11.0318 21.9902 10.8426 22.1954C10.6533 22.4005 10.547 22.6787 10.547 22.9688V27.3438C10.547 28.214 10.866 29.0486 11.4338 29.6639C12.0016 30.2793 12.7717 30.625 13.5747 30.625H29.7229C30.5259 30.625 31.2961 30.2793 31.8639 29.6639C32.4317 29.0486 32.7507 28.214 32.7507 27.3438V7.65625C32.7507 6.78601 32.4317 5.95141 31.8639 5.33606C31.2961 4.7207 30.5259 4.375 29.7229 4.375H13.5747C12.7717 4.375 12.0016 4.7207 11.4338 5.33606C10.866 5.95141 10.547 6.78601 10.547 7.65625V12.0312C10.547 12.3213 10.6533 12.5995 10.8426 12.8046C11.0318 13.0098 11.2886 13.125 11.5562 13.125C11.8239 13.125 12.0806 13.0098 12.2699 12.8046C12.4592 12.5995 12.5655 12.3213 12.5655 12.0312V7.65625Z" fill="white"/>
<path fill-rule="evenodd" clip-rule="evenodd" d="M24.3819 18.2743C24.4759 18.1727 24.5505 18.052 24.6013 17.9191C24.6522 17.7862 24.6784 17.6438 24.6784 17.4999C24.6784 17.3561 24.6522 17.2136 24.6013 17.0807C24.5505 16.9478 24.4759 16.8271 24.3819 16.7255L18.3263 10.163C18.2325 10.0613 18.1211 9.98068 17.9985 9.92565C17.8759 9.87061 17.7445 9.84229 17.6118 9.84229C17.4791 9.84229 17.3477 9.87061 17.2251 9.92565C17.1025 9.98068 16.9911 10.0613 16.8972 10.163C16.8034 10.2647 16.729 10.3855 16.6782 10.5183C16.6274 10.6512 16.6012 10.7936 16.6012 10.9374C16.6012 11.0812 16.6274 11.2236 16.6782 11.3565C16.729 11.4894 16.8034 11.6101 16.8972 11.7118L21.231 16.4062H3.48213C3.21446 16.4062 2.95775 16.5214 2.76848 16.7265C2.57921 16.9316 2.47287 17.2098 2.47287 17.4999C2.47287 17.79 2.57921 18.0682 2.76848 18.2733C2.95775 18.4784 3.21446 18.5937 3.48213 18.5937H21.231L16.8972 23.288C16.8034 23.3897 16.729 23.5105 16.6782 23.6433C16.6274 23.7762 16.6012 23.9186 16.6012 24.0624C16.6012 24.2062 16.6274 24.3486 16.6782 24.4815C16.729 24.6144 16.8034 24.7351 16.8972 24.8368C16.9911 24.9385 17.1025 25.0192 17.2251 25.0742C17.3477 25.1292 17.4791 25.1575 17.6118 25.1575C17.7445 25.1575 17.8759 25.1292 17.9985 25.0742C18.1211 25.0192 18.2325 24.9385 18.3263 24.8368L24.3819 18.2743Z" fill="white"/>
</g>
<defs>
<clipPath id="clip0_7_110">
<rect width="32.2963" height="35" fill="white" transform="translate(0.454353)"/>
</clipPath>
</defs>
</svg>
