<svg width="33" height="35" viewBox="0 0 33 35" fill="none" xmlns="http://www.w3.org/2000/svg">
<g clip-path="url(#clip0_7_119)">
<path fill-rule="evenodd" clip-rule="evenodd" d="M20.6642 27.3438C20.6642 27.6338 20.5578 27.912 20.3686 28.1171C20.1793 28.3223 19.9226 28.4375 19.6549 28.4375H3.50673C3.23905 28.4375 2.98234 28.3223 2.79307 28.1171C2.6038 27.912 2.49746 27.6338 2.49746 27.3438V7.65625C2.49746 7.36617 2.6038 7.08797 2.79307 6.88285C2.98234 6.67773 3.23905 6.5625 3.50673 6.5625H19.6549C19.9226 6.5625 20.1793 6.67773 20.3686 6.88285C20.5578 7.08797 20.6642 7.36617 20.6642 7.65625V12.0312C20.6642 12.3213 20.7705 12.5995 20.9598 12.8046C21.149 13.0098 21.4058 13.125 21.6734 13.125C21.9411 13.125 22.1978 13.0098 22.3871 12.8046C22.5764 12.5995 22.6827 12.3213 22.6827 12.0312V7.65625C22.6827 6.78601 22.3637 5.95141 21.7959 5.33606C21.228 4.7207 20.4579 4.375 19.6549 4.375H3.50673C2.70371 4.375 1.93358 4.7207 1.36576 5.33606C0.79794 5.95141 0.478943 6.78601 0.478943 7.65625L0.478943 27.3438C0.478943 28.214 0.79794 29.0486 1.36576 29.6639C1.93358 30.2793 2.70371 30.625 3.50673 30.625H19.6549C20.4579 30.625 21.228 30.2793 21.7959 29.6639C22.3637 29.0486 22.6827 28.214 22.6827 27.3438V22.9688C22.6827 22.6787 22.5764 22.4005 22.3871 22.1954C22.1978 21.9902 21.9411 21.875 21.6734 21.875C21.4058 21.875 21.149 21.9902 20.9598 22.1954C20.7705 22.4005 20.6642 22.6787 20.6642 22.9688V27.3438Z" fill="white"/>
<path fill-rule="evenodd" clip-rule="evenodd" d="M32.4806 18.2743C32.5746 18.1727 32.6492 18.052 32.7 17.9191C32.7509 17.7862 32.7771 17.6438 32.7771 17.4999C32.7771 17.3561 32.7509 17.2136 32.7 17.0807C32.6492 16.9478 32.5746 16.8271 32.4806 16.7255L26.425 10.163C26.2355 9.95767 25.9785 9.84229 25.7105 9.84229C25.4425 9.84229 25.1854 9.95767 24.9959 10.163C24.8064 10.3684 24.6999 10.647 24.6999 10.9374C24.6999 11.2279 24.8064 11.5064 24.9959 11.7118L29.3297 16.4062H11.5808C11.3132 16.4062 11.0564 16.5214 10.8672 16.7265C10.6779 16.9316 10.5716 17.2098 10.5716 17.4999C10.5716 17.79 10.6779 18.0682 10.8672 18.2733C11.0564 18.4784 11.3132 18.5937 11.5808 18.5937H29.3297L24.9959 23.288C24.8064 23.4934 24.6999 23.772 24.6999 24.0624C24.6999 24.3529 24.8064 24.6314 24.9959 24.8368C25.1854 25.0422 25.4425 25.1575 25.7105 25.1575C25.9785 25.1575 26.2355 25.0422 26.425 24.8368L32.4806 18.2743Z" fill="white"/>
</g>
<defs>
<clipPath id="clip0_7_119">
<rect width="32.2963" height="35" fill="white" transform="translate(0.478943)"/>
</clipPath>
</defs>
</svg>
